<svg width="256" height="256" viewBox="0 0 256 256" fill="none" xmlns="http://www.w3.org/2000/svg" role="img" aria-labelledby="title desc">
  <title id="title">Vocalist AI Mark</title>
  <desc id="desc">Gradient rounded-square logo mark with stylized V and voice wave bars.</desc>
  <defs>
    <linearGradient id="bg" x1="36" y1="20" x2="226" y2="240" gradientUnits="userSpaceOnUse">
      <stop stop-color="#4F46E5"/>
      <stop offset="1" stop-color="#9333EA"/>
    </linearGradient>
    <linearGradient id="vgrad" x1="128" y1="64" x2="128" y2="184" gradientUnits="userSpaceOnUse">
      <stop stop-color="#FFFFFF" stop-opacity="0.96"/>
      <stop offset="1" stop-color="#E2E8F0"/>
    </linearGradient>
  </defs>

  <rect x="20" y="20" width="216" height="216" rx="56" fill="url(#bg)"/>

  <path d="M66 86C72.2 82.1 80.4 84 84.3 90.2L126.2 157.1C127.1 158.5 129.1 158.5 130 157.1L171.8 90.2C175.7 84 183.9 82.1 190.1 86C196.2 89.9 198.1 98.1 194.2 104.2L146.8 180.1C142.6 186.9 135.2 191 127.2 191C119.2 191 111.8 186.9 107.6 180.1L60 104.2C56.1 98.1 57.9 89.9 66 86Z" fill="url(#vgrad)"/>

  <rect x="52" y="122" width="8" height="18" rx="4" fill="white" fill-opacity="0.45"/>
  <rect x="64" y="114" width="8" height="34" rx="4" fill="white" fill-opacity="0.62"/>
  <rect x="76" y="106" width="8" height="50" rx="4" fill="white" fill-opacity="0.82"/>

  <rect x="172" y="106" width="8" height="50" rx="4" fill="white" fill-opacity="0.82"/>
  <rect x="184" y="114" width="8" height="34" rx="4" fill="white" fill-opacity="0.62"/>
  <rect x="196" y="122" width="8" height="18" rx="4" fill="white" fill-opacity="0.45"/>
</svg>
